<svg width="96" height="96" viewBox="0 0 96 96" fill="none" xmlns="http://www.w3.org/2000/svg">
<g clip-path="url(#clip0_2_2)">
<rect width="96" height="96" fill="white"/>
<rect width="32" height="32" fill="white" stroke="black"/>
<rect x="32" width="32" height="32" fill="white" stroke="black"/>
<rect x="64" width="32" height="32" fill="white" stroke="black"/>
<rect y="32" width="32" height="32" fill="white" stroke="black"/>
<rect x="32" y="32" width="32" height="32" fill="white" stroke="black"/>
<rect x="64" y="32" width="32" height="32" fill="white" stroke="black"/>
<rect y="64" width="32" height="32" fill="white" stroke="black"/>
<rect x="32" y="64" width="32" height="32" fill="white" stroke="black"/>
<rect x="64" y="64" width="32" height="32" fill="white" stroke="black"/>
<circle cx="16" cy="16" r="12" fill="#0000FF"/>
<circle cx="80" cy="16" r="12" fill="#0000FF"/>
<circle cx="80" cy="48" r="12" fill="#0000FF"/>
<circle cx="16" cy="48" r="12" fill="#0000FF"/>
<circle cx="16" cy="80" r="12" fill="#0000FF"/>
<circle cx="80" cy="80" r="12" fill="#0000FF"/>
<rect x="16" y="4" width="64" height="24" fill="#0000FF"/>
<rect x="16" y="36" width="64" height="24" fill="#0000FF"/>
<rect x="16" y="68" width="64" height="24" fill="#0000FF"/>
<rect x="68" y="16" width="24" height="32" fill="#0000FF"/>
<rect x="4" y="48" width="24" height="32" fill="#0000FF"/>
<circle cx="16" cy="16" r="8" fill="white"/>
<circle cx="80" cy="80" r="8" fill="white"/>
</g>
<defs>
<clipPath id="clip0_2_2">
<rect width="96" height="96" fill="white"/>
</clipPath>
</defs>
</svg>
